<mxfile host="app.diagrams.net" modified="2022-03-14T10:21:44.313Z" agent="5.0 (Windows NT 10.0; Win64; x64) AppleWebKit/537.36 (KHTML, like Gecko) Chrome/99.0.4844.51 Safari/537.36" etag="xJJfrp_7EijX18gyu-_t" version="17.1.1" type="github">
  <diagram id="4LJdHv9ZE5ONTMAVWfWZ" name="Relaciones">
    <mxGraphModel dx="284" dy="1716" grid="1" gridSize="10" guides="1" tooltips="1" connect="1" arrows="1" fold="1" page="1" pageScale="1" pageWidth="827" pageHeight="1169" math="0" shadow="0">
      <root>
        <mxCell id="0" />
        <mxCell id="1" parent="0" />
        <mxCell id="NLtDZFDJUNt6tNg1YdRj-9" style="edgeStyle=orthogonalEdgeStyle;rounded=0;orthogonalLoop=1;jettySize=auto;html=1;entryX=0.011;entryY=0.396;entryDx=0;entryDy=0;entryPerimeter=0;fontFamily=Helvetica;fontColor=#4D4D4D;" edge="1" parent="1" source="NLtDZFDJUNt6tNg1YdRj-2" target="NLtDZFDJUNt6tNg1YdRj-4">
          <mxGeometry relative="1" as="geometry">
            <Array as="points">
              <mxPoint x="180" y="80" />
              <mxPoint x="180" y="80" />
            </Array>
          </mxGeometry>
        </mxCell>
        <mxCell id="NLtDZFDJUNt6tNg1YdRj-2" value="&lt;h2&gt;&lt;u&gt;&lt;font color=&quot;#4d4d4d&quot;&gt;TABLA USUARIOS&lt;/font&gt;&lt;/u&gt;&lt;/h2&gt;&lt;div&gt;&lt;u&gt;&lt;font color=&quot;#4d4d4d&quot;&gt;id (unsignedBigInteger)&lt;/font&gt;&lt;/u&gt;&lt;/div&gt;&lt;div&gt;&lt;font color=&quot;#4d4d4d&quot;&gt;&lt;u&gt;firstName (string: 50)&lt;/u&gt;&lt;/font&gt;&lt;/div&gt;&lt;div&gt;&lt;u style=&quot;color: rgb(77 , 77 , 77)&quot;&gt;lastName (string: 100)&lt;/u&gt;&lt;font color=&quot;#4d4d4d&quot;&gt;&lt;u&gt;&lt;br&gt;&lt;/u&gt;&lt;/font&gt;&lt;/div&gt;&lt;div&gt;&lt;u style=&quot;color: rgb(77 , 77 , 77)&quot;&gt;Email (string: 80)&lt;/u&gt;&lt;u style=&quot;color: rgb(77 , 77 , 77)&quot;&gt;&lt;br&gt;&lt;/u&gt;&lt;/div&gt;&lt;div&gt;&lt;u style=&quot;color: rgb(77 , 77 , 77)&quot;&gt;Password (string: 100)&lt;/u&gt;&lt;/div&gt;&lt;div&gt;&lt;u style=&quot;color: rgb(77 , 77 , 77)&quot;&gt;Image(ImageField)&lt;/u&gt;&lt;u style=&quot;color: rgb(77 , 77 , 77)&quot;&gt;&lt;br&gt;&lt;/u&gt;&lt;/div&gt;&lt;div&gt;&lt;u style=&quot;color: rgb(77 , 77 , 77)&quot;&gt;numReports(int: min: 0, max: 3)&lt;/u&gt;&lt;u style=&quot;color: rgb(77 , 77 , 77)&quot;&gt;&lt;br&gt;&lt;/u&gt;&lt;/div&gt;&lt;div&gt;&lt;u style=&quot;color: rgb(77 , 77 , 77)&quot;&gt;report1 (longText)&lt;/u&gt;&lt;u style=&quot;color: rgb(77 , 77 , 77)&quot;&gt;&lt;br&gt;&lt;/u&gt;&lt;/div&gt;&lt;div&gt;&lt;u style=&quot;color: rgb(77 , 77 , 77)&quot;&gt;report2 (longText)&lt;/u&gt;&lt;u style=&quot;color: rgb(77 , 77 , 77)&quot;&gt;&lt;br&gt;&lt;/u&gt;&lt;/div&gt;&lt;div&gt;&lt;u style=&quot;color: rgb(77 , 77 , 77)&quot;&gt;activo (bool)&lt;/u&gt;&lt;/div&gt;&lt;div&gt;&lt;u style=&quot;color: rgb(77 , 77 , 77)&quot;&gt;token(string: 100)&lt;/u&gt;&lt;/div&gt;&lt;div&gt;&lt;u style=&quot;color: rgb(77 , 77 , 77)&quot;&gt;rol_id(unsignedBigInteger)&lt;/u&gt;&lt;/div&gt;" style="rounded=0;whiteSpace=wrap;html=1;fillColor=#d5e8d4;strokeColor=#82b366;strokeWidth=1;perimeterSpacing=0;line-height:30px;" vertex="1" parent="1">
          <mxGeometry x="40" y="40" width="150" height="270" as="geometry" />
        </mxCell>
        <mxCell id="NLtDZFDJUNt6tNg1YdRj-3" value="&lt;h2&gt;&lt;u&gt;&lt;font color=&quot;#4d4d4d&quot;&gt;TABLA SUELOS&lt;/font&gt;&lt;/u&gt;&lt;/h2&gt;&lt;div&gt;&lt;div&gt;&lt;u&gt;&lt;font color=&quot;#4d4d4d&quot;&gt;id (unsignedBigInteger)&lt;/font&gt;&lt;/u&gt;&lt;/div&gt;&lt;/div&gt;&lt;div&gt;&lt;u&gt;&lt;font color=&quot;#4d4d4d&quot;&gt;name (string: 50)&lt;/font&gt;&lt;/u&gt;&lt;u&gt;&lt;font color=&quot;#4d4d4d&quot;&gt;&lt;br&gt;&lt;/font&gt;&lt;/u&gt;&lt;/div&gt;" style="rounded=0;whiteSpace=wrap;html=1;fillColor=#e1d5e7;strokeColor=#9673a6;" vertex="1" parent="1">
          <mxGeometry x="450" y="320" width="150" height="160" as="geometry" />
        </mxCell>
        <mxCell id="NLtDZFDJUNt6tNg1YdRj-4" value="&lt;h2&gt;&lt;u&gt;&lt;font color=&quot;#4d4d4d&quot;&gt;TABLA ROLES&lt;/font&gt;&lt;/u&gt;&lt;/h2&gt;&lt;div&gt;&lt;div&gt;&lt;u&gt;&lt;font color=&quot;#4d4d4d&quot;&gt;id (unsignedBigInteger)&lt;/font&gt;&lt;/u&gt;&lt;/div&gt;&lt;/div&gt;&lt;div&gt;&lt;u&gt;&lt;font color=&quot;#4d4d4d&quot;&gt;name (string: 50)&lt;/font&gt;&lt;/u&gt;&lt;/div&gt;" style="rounded=0;whiteSpace=wrap;html=1;fillColor=#dae8fc;strokeColor=#6c8ebf;" vertex="1" parent="1">
          <mxGeometry x="310" y="-20" width="150" height="160" as="geometry" />
        </mxCell>
        <mxCell id="NLtDZFDJUNt6tNg1YdRj-7" style="edgeStyle=orthogonalEdgeStyle;rounded=0;orthogonalLoop=1;jettySize=auto;html=1;fontFamily=Helvetica;fontColor=#4D4D4D;" edge="1" parent="1" source="NLtDZFDJUNt6tNg1YdRj-5" target="NLtDZFDJUNt6tNg1YdRj-3">
          <mxGeometry relative="1" as="geometry" />
        </mxCell>
        <mxCell id="NLtDZFDJUNt6tNg1YdRj-8" style="edgeStyle=orthogonalEdgeStyle;rounded=0;orthogonalLoop=1;jettySize=auto;html=1;fontFamily=Helvetica;fontColor=#4D4D4D;" edge="1" parent="1" source="NLtDZFDJUNt6tNg1YdRj-5" target="NLtDZFDJUNt6tNg1YdRj-6">
          <mxGeometry relative="1" as="geometry" />
        </mxCell>
        <mxCell id="NLtDZFDJUNt6tNg1YdRj-5" value="&lt;h2&gt;&lt;u&gt;&lt;font color=&quot;#4d4d4d&quot;&gt;TABLA PISTAS&lt;/font&gt;&lt;/u&gt;&lt;/h2&gt;&lt;div&gt;&lt;div&gt;&lt;u&gt;&lt;font color=&quot;#4d4d4d&quot;&gt;id (unsignedBigInteger)&lt;/font&gt;&lt;/u&gt;&lt;/div&gt;&lt;/div&gt;&lt;div&gt;&lt;u&gt;&lt;font color=&quot;#4d4d4d&quot;&gt;name(string: 50)&lt;/font&gt;&lt;/u&gt;&lt;/div&gt;&lt;div&gt;&lt;u&gt;&lt;font color=&quot;#4d4d4d&quot;&gt;price_per_hour(float)&lt;/font&gt;&lt;/u&gt;&lt;/div&gt;&lt;div&gt;&lt;u&gt;&lt;font color=&quot;#4d4d4d&quot;&gt;is_available (bool)&lt;/font&gt;&lt;/u&gt;&lt;/div&gt;&lt;div&gt;&lt;u&gt;&lt;font color=&quot;#4d4d4d&quot;&gt;is_outdoor (bool)&lt;/font&gt;&lt;/u&gt;&lt;/div&gt;&lt;div&gt;&lt;font color=&quot;#4d4d4d&quot;&gt;&lt;u&gt;start_at(Datetime)&lt;/u&gt;&lt;/font&gt;&lt;/div&gt;&lt;div&gt;&lt;u style=&quot;color: rgb(77 , 77 , 77)&quot;&gt;end_at(Datetime)&lt;/u&gt;&lt;font color=&quot;#4d4d4d&quot;&gt;&lt;u&gt;&lt;br&gt;&lt;/u&gt;&lt;/font&gt;&lt;/div&gt;&lt;div&gt;&lt;u&gt;&lt;font color=&quot;#4d4d4d&quot;&gt;capacity (int, min: 0)&lt;/font&gt;&lt;/u&gt;&lt;/div&gt;&lt;div&gt;&lt;u&gt;&lt;font color=&quot;#4d4d4d&quot;&gt;isIluminated(bool)&lt;/font&gt;&lt;/u&gt;&lt;/div&gt;&lt;div&gt;&lt;u&gt;&lt;font color=&quot;#4d4d4d&quot;&gt;Image(ImageField)&lt;/font&gt;&lt;/u&gt;&lt;/div&gt;&lt;div&gt;&lt;font color=&quot;#4d4d4d&quot;&gt;&lt;u&gt;address(string: 100)&lt;/u&gt;&lt;/font&gt;&lt;/div&gt;&lt;div&gt;&lt;font color=&quot;#4d4d4d&quot;&gt;floor_id (&lt;/font&gt;&lt;/div&gt;&lt;u&gt;&lt;font color=&quot;#4d4d4d&quot;&gt;unsignedBigInteger&lt;/font&gt;&lt;/u&gt;&lt;span style=&quot;color: rgb(77 , 77 , 77)&quot;&gt;)&lt;br&gt;&lt;/span&gt;&lt;u&gt;&lt;font color=&quot;#4d4d4d&quot;&gt;sport_id(unsignedBigInteger)&lt;br&gt;&lt;/font&gt;&lt;/u&gt;" style="rounded=0;whiteSpace=wrap;html=1;fillColor=#f8cecc;strokeColor=#b85450;" vertex="1" parent="1">
          <mxGeometry x="40" y="320" width="170" height="280" as="geometry" />
        </mxCell>
        <mxCell id="NLtDZFDJUNt6tNg1YdRj-6" value="&lt;h2&gt;&lt;u&gt;&lt;font color=&quot;#4d4d4d&quot;&gt;TABLA DEPORTES&lt;/font&gt;&lt;/u&gt;&lt;/h2&gt;&lt;div&gt;&lt;div&gt;&lt;u&gt;&lt;font color=&quot;#4d4d4d&quot;&gt;id (unsignedBigInteger)&lt;/font&gt;&lt;/u&gt;&lt;/div&gt;&lt;/div&gt;&lt;div&gt;&lt;u&gt;&lt;font color=&quot;#4d4d4d&quot;&gt;name (string: 50)&lt;/font&gt;&lt;/u&gt;&lt;/div&gt;&lt;div&gt;&lt;u&gt;&lt;font color=&quot;#4d4d4d&quot;&gt;&lt;br&gt;&lt;/font&gt;&lt;/u&gt;&lt;/div&gt;" style="rounded=0;whiteSpace=wrap;html=1;fillColor=#f5f5f5;strokeColor=#666666;fontColor=#333333;" vertex="1" parent="1">
          <mxGeometry x="350" y="510" width="150" height="160" as="geometry" />
        </mxCell>
        <mxCell id="NLtDZFDJUNt6tNg1YdRj-13" style="edgeStyle=orthogonalEdgeStyle;rounded=0;orthogonalLoop=1;jettySize=auto;html=1;fontFamily=Helvetica;fontColor=#4D4D4D;" edge="1" parent="1" source="NLtDZFDJUNt6tNg1YdRj-12" target="NLtDZFDJUNt6tNg1YdRj-2">
          <mxGeometry relative="1" as="geometry" />
        </mxCell>
        <mxCell id="NLtDZFDJUNt6tNg1YdRj-14" style="edgeStyle=orthogonalEdgeStyle;rounded=0;orthogonalLoop=1;jettySize=auto;html=1;entryX=1.006;entryY=0.025;entryDx=0;entryDy=0;entryPerimeter=0;fontFamily=Helvetica;fontColor=#4D4D4D;" edge="1" parent="1" source="NLtDZFDJUNt6tNg1YdRj-12" target="NLtDZFDJUNt6tNg1YdRj-5">
          <mxGeometry relative="1" as="geometry" />
        </mxCell>
        <mxCell id="NLtDZFDJUNt6tNg1YdRj-12" value="&lt;h2&gt;&lt;u&gt;&lt;font color=&quot;#4d4d4d&quot;&gt;TABLA COMENTARIOS&lt;/font&gt;&lt;/u&gt;&lt;/h2&gt;&lt;div&gt;&lt;u&gt;&lt;font color=&quot;#4d4d4d&quot;&gt;id (unsignedBigInteger)&lt;/font&gt;&lt;/u&gt;&lt;/div&gt;&lt;div&gt;&lt;u&gt;&lt;font color=&quot;#4d4d4d&quot;&gt;text (longText)&lt;/font&gt;&lt;/u&gt;&lt;/div&gt;&lt;div&gt;&lt;u&gt;&lt;font color=&quot;#4d4d4d&quot;&gt;id_usuario (unsignedBigInteger)&lt;/font&gt;&lt;/u&gt;&lt;u&gt;&lt;font color=&quot;#4d4d4d&quot;&gt;&lt;br&gt;&lt;/font&gt;&lt;/u&gt;&lt;/div&gt;&lt;div&gt;&lt;u&gt;&lt;font color=&quot;#4d4d4d&quot;&gt;id_pista(unsignedBigInteger)&lt;/font&gt;&lt;/u&gt;&lt;u&gt;&lt;font color=&quot;#4d4d4d&quot;&gt;&lt;br&gt;&lt;/font&gt;&lt;/u&gt;&lt;/div&gt;&lt;div&gt;&lt;br&gt;&lt;/div&gt;" style="rounded=0;whiteSpace=wrap;html=1;fillColor=#fad7ac;strokeColor=#b46504;strokeWidth=1;perimeterSpacing=0;line-height:30px;" vertex="1" parent="1">
          <mxGeometry x="480" y="50" width="170" height="260" as="geometry" />
        </mxCell>
      </root>
    </mxGraphModel>
  </diagram>
</mxfile>
